<svg id="Layer_1" data-name="Layer 1" xmlns="http://www.w3.org/2000/svg" viewBox="0 0 583.73 182.28"><title>Probono</title><path d="M80.88,17a72.86,72.86,0,0,1,24.68,3.81A52.78,52.78,0,0,1,123.2,30.94a41.8,41.8,0,0,1,10.6,14.54,42.35,42.35,0,0,1,3.56,17,43.86,43.86,0,0,1-3.18,16.26,46.44,46.44,0,0,1-9.6,14.83,58,58,0,0,1-16.18,11.73,75.92,75.92,0,0,1-22.92,7q-.25,6.12-.42,11.23-.08,2.18-.17,4.36t-.13,4q0,1.8-.08,3.14t0,1.84A76.45,76.45,0,0,1,83.27,149a73.39,73.39,0,0,1-3.52,12.36,69.09,69.09,0,0,1-5.62,11.44,44.34,44.34,0,0,1-7.71,9.47,35.31,35.31,0,0,1-9.85,6.45,29.31,29.31,0,0,1-11.9,2.39,21.81,21.81,0,0,1-12.28-3.56,34.09,34.09,0,0,1-9.47-9.6,62,62,0,0,1-6.87-13.91,121.62,121.62,0,0,1-4.57-16.47A157.36,157.36,0,0,1,8.93,130.3q-.8-8.72-.8-16.43a131.74,131.74,0,0,1,2.43-25.56,118.78,118.78,0,0,1,7-23.09,97.7,97.7,0,0,1,11-19.65A76.45,76.45,0,0,1,43,30.31a63.58,63.58,0,0,1,17.6-9.85A58.49,58.49,0,0,1,80.88,17ZM30.6,111.69q0,3.44,0,9.26t.46,12.45q.42,6.62,1.34,13.41a69.19,69.19,0,0,0,2.72,12.28,29.23,29.23,0,0,0,4.53,9,8.35,8.35,0,0,0,6.83,3.48,10,10,0,0,0,7.29-3,23.65,23.65,0,0,0,5-7.71A54,54,0,0,0,62,150.12q1.17-6,1.76-12t.75-11.52q.17-5.49.17-9.34v-3.94a118.22,118.22,0,0,1-10.94-4.86,26.83,26.83,0,0,1-6-4,8.65,8.65,0,0,1-2.56-4.06,20.27,20.27,0,0,1-.54-5q0-1.51.08-3a10,10,0,0,1,.46-2.6,4.62,4.62,0,0,1,1.09-1.84,2.66,2.66,0,0,1,2-.71,3.61,3.61,0,0,1,1.55.33q.71.34,1.8.92,2.77,1.51,5,2.47t3.85,1.55a26.87,26.87,0,0,0,3.35,1q0-1.09,0-4.32t.5-7.37A70,70,0,0,1,66,73.14a32.76,32.76,0,0,1,3.18-8.3A19.27,19.27,0,0,1,74.6,58.6a13.6,13.6,0,0,1,8.3-2.47,17.13,17.13,0,0,1,3.1.29,8.43,8.43,0,0,1,2.89,1.09,6.93,6.93,0,0,1,2.18,2.14,6.15,6.15,0,0,1,.88,3.44,4.94,4.94,0,0,1,0,.8,2.81,2.81,0,0,0,0,.54L86.75,86,86,92.58a52.48,52.48,0,0,0,14.16-4A35.56,35.56,0,0,0,110,82a24.81,24.81,0,0,0,5.78-8.3,24,24,0,0,0,1.89-9.3,27.73,27.73,0,0,0-1.8-9.6,22.56,22.56,0,0,0-6.24-8.93,34.38,34.38,0,0,0-11.9-6.62q-7.46-2.6-18.77-2.6a35.65,35.65,0,0,0-15.34,3.23,41.47,41.47,0,0,0-12.24,8.76,56.9,56.9,0,0,0-9.3,12.91,87.93,87.93,0,0,0-6.5,15.71,109.18,109.18,0,0,0-3.77,17.18A126.41,126.41,0,0,0,30.6,111.69Z" transform="translate(-8.14 -8.86)"/><path d="M132.09,152.26q0-3.69.42-8.59t1.13-10.35q.71-5.45,1.68-11.1t2.05-10.77q1.09-5.11,2.18-9.39a60.06,60.06,0,0,1,2.18-7,16.38,16.38,0,0,1,1.34-2.93,5.83,5.83,0,0,1,1.55-1.72,5.09,5.09,0,0,1,2.18-.84,20.89,20.89,0,0,1,3.23-.21,21.28,21.28,0,0,1,3.39.21,2.7,2.7,0,0,1,1.8,1,4.51,4.51,0,0,1,.71,2.3q.13,1.51.13,4.11v7.5q0,4.4.17,8.67h.92q1.68-3.35,3.77-7.5a48.89,48.89,0,0,1,4.86-7.75,28.77,28.77,0,0,1,6.29-6.08,13.79,13.79,0,0,1,8.13-2.47,9.09,9.09,0,0,1,3.1.54,8.06,8.06,0,0,1,2.64,1.55,7.37,7.37,0,0,1,1.8,2.47,7.89,7.89,0,0,1,.67,3.31,26.33,26.33,0,0,1-.42,4q-.42,2.56-.92,5.36t-.92,5.45a28.87,28.87,0,0,0-.42,4.4,18.24,18.24,0,0,0,.59,5,9.35,9.35,0,0,0,1.55,3.23,5.45,5.45,0,0,0,2.18,1.72,6.61,6.61,0,0,0,2.56.5,20.2,20.2,0,0,0,7.79-1.68,50.55,50.55,0,0,0,7.38-3.77,70.06,70.06,0,0,0,7.71-5.53l-1.26,19.61q-2.18,1.43-4.94,3.19a62.5,62.5,0,0,1-5.91,3.31,44.17,44.17,0,0,1-6.54,2.6,23.29,23.29,0,0,1-6.91,1q-6.29,0-10.14-2.56a18.57,18.57,0,0,1-6.12-6.7,34,34,0,0,1-3.35-9.3q-1.09-5.15-1.76-10.43H167.2l-15,41.82a54.23,54.23,0,0,1-2.22,5.41,18.4,18.4,0,0,1-2.14,3.48,6.31,6.31,0,0,1-2.35,1.89,6.87,6.87,0,0,1-2.77.54,8.79,8.79,0,0,1-8.76-5.41,18.81,18.81,0,0,1-1.51-5.62A54.49,54.49,0,0,1,132.09,152.26Z" transform="translate(-8.14 -8.86)"/><path d="M256,107a44.93,44.93,0,0,1,3.65,10.27,45.4,45.4,0,0,1,.13,20.32,51.33,51.33,0,0,1-3.14,9.72,47.19,47.19,0,0,1-5,8.8,35.82,35.82,0,0,1-6.79,7.12,32.16,32.16,0,0,1-8.34,4.78,26.37,26.37,0,0,1-9.64,1.76,23.58,23.58,0,0,1-12.61-3.23,26.86,26.86,0,0,1-8.59-8.42,37.33,37.33,0,0,1-4.9-11.73,57.16,57.16,0,0,1-1.55-13.24,52.38,52.38,0,0,1,2.77-17.22A41.56,41.56,0,0,1,209.82,102a36.63,36.63,0,0,1,12.61-9.3,40,40,0,0,1,16.76-3.39,44.25,44.25,0,0,1,14.92,2.47,56.73,56.73,0,0,1,13,6.62,74.64,74.64,0,0,1,11.31,9.51A144.33,144.33,0,0,1,288.22,119l-1.59,11.82a48.74,48.74,0,0,0-6.12-6.54q-3.86-3.52-8.17-6.87t-8.51-6.33q-4.19-3-7.21-5Zm-25.9,46.68q2.85,0,5.53-2.89a27.36,27.36,0,0,0,4.69-7.29,50.23,50.23,0,0,0,3.23-9.72,45.8,45.8,0,0,0,1.22-10.18,41.21,41.21,0,0,0-.59-7.17,22.11,22.11,0,0,0-1.76-5.74,10.6,10.6,0,0,0-3-3.85,7.05,7.05,0,0,0-4.44-1.42,9.44,9.44,0,0,0-6.54,2.93,27.49,27.49,0,0,0-5.45,7.5,47.88,47.88,0,0,0-5,20.74,31.2,31.2,0,0,0,.67,6.62,17,17,0,0,0,2.1,5.41,10.5,10.5,0,0,0,9.39,5.07Z" transform="translate(-8.14 -8.86)"/><path d="M304.82,102.3a83.85,83.85,0,0,1,8.59-9.43q3.9-3.56,7.75-3.56a17.58,17.58,0,0,1,8.8,2.18,20.93,20.93,0,0,1,6.54,5.78,26.81,26.81,0,0,1,4.11,8.3,33.6,33.6,0,0,1,1.43,9.81q0,4.27-.34,8.09a50.6,50.6,0,0,1-1.21,7.46,45.08,45.08,0,0,1-2.43,7.25,49.69,49.69,0,0,1-4.07,7.46q3-1.76,6.12-3.44t6.24-3.69q3.14-2,6.33-4.48a70,70,0,0,0,6.54-5.83L365.66,142a82.78,82.78,0,0,1-9.18,7.29,72.09,72.09,0,0,1-9.39,5.41,79.12,79.12,0,0,1-10.06,4q-5.24,1.68-11.11,3a18.79,18.79,0,0,1-3.9,2.85q-2.47,1.43-4.9,2.6-2.77,1.34-5.95,2.6h-2.1a51.88,51.88,0,0,1-14.12-2,104.36,104.36,0,0,1-12.7-4.4A99.12,99.12,0,0,1,269.62,157q.25-6.79,1-15.34.67-7.37,1.84-17.39T275.65,102Q277,93.76,279,83.66t4.74-20.45q2.72-10.35,6.12-20.11A116.46,116.46,0,0,1,297.4,25.7a48.39,48.39,0,0,1,9.05-12.24q4.9-4.61,10.6-4.61,6.37,0,10.22,2.18a15.33,15.33,0,0,1,5.95,5.91A24.29,24.29,0,0,1,336,25.7a81.22,81.22,0,0,1,.67,10.73,49.43,49.43,0,0,1-3,16.43,104.45,104.45,0,0,1-7.75,16.89,167.12,167.12,0,0,1-10.69,16.47q-5.91,8-11.78,15.17Zm7.54,6.12a15.23,15.23,0,0,0-5.87,1.22,16.51,16.51,0,0,0-5.45,3.77,24.4,24.4,0,0,0-4.44,6.54,35.06,35.06,0,0,0-2.85,9.6q-.75,4.53-1.26,8.34t-.84,6.75q-.34,3.35-.59,6.29,2.77.84,5.53,1.42,2.43.5,5.11.92a33,33,0,0,0,5.11.42A8.73,8.73,0,0,0,312,152a16.64,16.64,0,0,0,4.19-4.48,32,32,0,0,0,3.19-6.41,54.46,54.46,0,0,0,2.18-7.5,76.81,76.81,0,0,0,1.26-7.71,64.47,64.47,0,0,0,.42-7,16.75,16.75,0,0,0-.46-4,8,8,0,0,0-1.68-3.31,8.63,8.63,0,0,0-3.35-2.3A14.3,14.3,0,0,0,312.36,108.42Zm8.21-76.77q0-.33-.13-1.42a9,9,0,0,0-.59-2.26,6.8,6.8,0,0,0-1.3-2.1,2.91,2.91,0,0,0-2.26-.92q-1.68,0-3.48,2.39a31.84,31.84,0,0,0-3.56,6.45,96.89,96.89,0,0,0-3.44,9.39q-1.68,5.32-3.27,11.15t-3,11.86q-1.38,6-2.52,11.44t-2,9.89q-.84,4.48-1.34,7.25,2.26-4.36,5.07-9.05t5.66-9.76q2.85-5.07,5.57-10.39T315,54.66a92.25,92.25,0,0,0,3.69-11.31A66.08,66.08,0,0,0,320.58,31.65Z" transform="translate(-8.14 -8.86)"/><path d="M408.74,107a44.86,44.86,0,0,1,3.65,10.27,45.41,45.41,0,0,1,.13,20.32,51.26,51.26,0,0,1-3.14,9.72,47.19,47.19,0,0,1-5,8.8,35.8,35.8,0,0,1-6.79,7.12,32.16,32.16,0,0,1-8.34,4.78,26.37,26.37,0,0,1-9.64,1.76A23.59,23.59,0,0,1,367,166.54a26.86,26.86,0,0,1-8.59-8.42,37.35,37.35,0,0,1-4.9-11.73,57.1,57.1,0,0,1-1.55-13.24,52.38,52.38,0,0,1,2.77-17.22A41.57,41.57,0,0,1,362.61,102a36.63,36.63,0,0,1,12.61-9.3A40,40,0,0,1,392,89.31a44.24,44.24,0,0,1,14.92,2.47,56.77,56.77,0,0,1,13,6.62,74.79,74.79,0,0,1,11.31,9.51A144.64,144.64,0,0,1,441,119l-1.59,11.82a48.76,48.76,0,0,0-6.12-6.54q-3.86-3.52-8.17-6.87t-8.51-6.33q-4.19-3-7.21-5Zm-25.9,46.68q2.85,0,5.53-2.89a27.38,27.38,0,0,0,4.69-7.29,50.3,50.3,0,0,0,3.23-9.72,45.83,45.83,0,0,0,1.21-10.18,41.17,41.17,0,0,0-.59-7.17,22.16,22.16,0,0,0-1.76-5.74,10.6,10.6,0,0,0-3-3.85,7.05,7.05,0,0,0-4.44-1.42,9.44,9.44,0,0,0-6.54,2.93,27.46,27.46,0,0,0-5.45,7.5,47.83,47.83,0,0,0-5,20.74,31.26,31.26,0,0,0,.67,6.62,17,17,0,0,0,2.1,5.41,10.5,10.5,0,0,0,9.39,5.07Z" transform="translate(-8.14 -8.86)"/><path d="M430.45,152.26q0-5.53.67-12.78t1.68-14.75q1-7.5,2.26-14.46t2.43-11.9a13.14,13.14,0,0,1,3.56-6.45,9.77,9.77,0,0,1,7.17-2.6q4.52,0,6.29,2.77a13.59,13.59,0,0,1,1.76,7.38,30.61,30.61,0,0,1-.25,3.39q-.25,2.14-.63,4.69t-.8,5.28q-.42,2.72-.8,5t-.63,4a20.13,20.13,0,0,0-.25,2.3h1.68q.5-.92,1.59-3l2.51-4.74q1.43-2.68,3.06-5.66t3.06-5.7q1.42-2.72,2.6-4.82t1.76-3.1a15.15,15.15,0,0,1,6.12-6.2,17.16,17.16,0,0,1,7.63-1.68,7.74,7.74,0,0,1,6.66,3.52q2.47,3.52,2.47,9.72a21.18,21.18,0,0,1-.38,3.1q-.38,2.18-1,5.2t-1.3,6.62q-.71,3.6-1.3,7.38t-1,7.46a67,67,0,0,0-.38,6.79,23.89,23.89,0,0,0,1.3,8.55q1.3,3.35,4.06,3.35a7.05,7.05,0,0,0,2.89-.75,28.89,28.89,0,0,0,3.52-2,44,44,0,0,0,3.86-2.81q2-1.59,3.9-3.27,4.44-3.94,9.3-8.88L517,152.09l-4.19,3.18q-3.44,2.6-7,5.2a62.18,62.18,0,0,1-7.42,4.65,46.07,46.07,0,0,1-8,3.35,29.56,29.56,0,0,1-8.8,1.3q-4.61,0-7.75-6.66t-3.14-19.49a95.23,95.23,0,0,1,.67-10.85q.67-5.82,1.68-12.53h-1.34l-22,43.58a10.78,10.78,0,0,1-3.77,4.69,9.27,9.27,0,0,1-4.86,1.26,8.79,8.79,0,0,1-8.76-5.41,18.84,18.84,0,0,1-1.51-5.62A54.38,54.38,0,0,1,430.45,152.26Z" transform="translate(-8.14 -8.86)"/><path d="M559.6,107a44.86,44.86,0,0,1,3.65,10.27,45.41,45.41,0,0,1,.13,20.32,51.26,51.26,0,0,1-3.14,9.72,47.19,47.19,0,0,1-5,8.8,35.8,35.8,0,0,1-6.79,7.12,32.16,32.16,0,0,1-8.34,4.78,26.37,26.37,0,0,1-9.64,1.76,23.59,23.59,0,0,1-12.61-3.23,26.86,26.86,0,0,1-8.59-8.42,37.35,37.35,0,0,1-4.9-11.73,57.1,57.1,0,0,1-1.55-13.24,52.38,52.38,0,0,1,2.77-17.22A41.57,41.57,0,0,1,513.46,102a36.63,36.63,0,0,1,12.61-9.3,40,40,0,0,1,16.76-3.39,44.24,44.24,0,0,1,14.92,2.47,56.77,56.77,0,0,1,13,6.62,74.79,74.79,0,0,1,11.31,9.51A144.64,144.64,0,0,1,591.86,119l-1.59,11.82a48.76,48.76,0,0,0-6.12-6.54q-3.86-3.52-8.17-6.87t-8.51-6.33q-4.19-3-7.21-5Zm-25.9,46.68q2.85,0,5.53-2.89a27.38,27.38,0,0,0,4.69-7.29,50.3,50.3,0,0,0,3.23-9.72,45.83,45.83,0,0,0,1.21-10.18,41.17,41.17,0,0,0-.59-7.17,22.16,22.16,0,0,0-1.76-5.74,10.6,10.6,0,0,0-3-3.85,7.05,7.05,0,0,0-4.44-1.42,9.44,9.44,0,0,0-6.54,2.93,27.46,27.46,0,0,0-5.45,7.5,47.83,47.83,0,0,0-5,20.74,31.26,31.26,0,0,0,.67,6.62,17,17,0,0,0,2.1,5.41,10.5,10.5,0,0,0,9.39,5.07Z" transform="translate(-8.14 -8.86)"/></svg>